<?xml version="1.0" standalone="no"?>
<!DOCTYPE svg PUBLIC "-//W3C//DTD SVG 20010904//EN"
 "http://www.w3.org/TR/2001/REC-SVG-20010904/DTD/svg10.dtd">
<svg version="1.0" xmlns="http://www.w3.org/2000/svg"
 width="600.000000pt" height="600.000000pt" viewBox="0 0 600.000000 600.000000"
 preserveAspectRatio="xMidYMid meet">
<metadata>
Created by potrace 1.11, written by Peter Selinger 2001-2013
</metadata>
<g transform="translate(0.000000,600.000000) scale(0.100000,-0.100000)"
fill="#000000" stroke="none">
<path d="M4209 5316 c-2 -2 -29 -6 -59 -10 -30 -3 -64 -8 -75 -10 -12 -2 -48
-7 -80 -11 -33 -4 -69 -9 -80 -11 -11 -2 -40 -6 -65 -9 -25 -3 -56 -8 -70 -11
-14 -2 -41 -6 -60 -9 -20 -2 -80 -11 -135 -19 -55 -8 -120 -18 -145 -21 -25
-3 -121 -17 -215 -31 -93 -13 -186 -26 -205 -29 -19 -3 -51 -7 -70 -10 -19 -3
-48 -7 -65 -9 -16 -2 -82 -11 -145 -20 -63 -9 -131 -19 -150 -22 -19 -2 -78
-11 -130 -19 -52 -7 -113 -16 -135 -19 -67 -9 -398 -56 -435 -62 -19 -3 -98
-14 -175 -25 -77 -11 -151 -22 -165 -24 -14 -2 -45 -7 -69 -10 -23 -3 -55 -7
-70 -9 -14 -3 -78 -12 -141 -21 -219 -31 -332 -84 -466 -220 -64 -66 -90 -101
-127 -176 -82 -166 -77 -45 -76 -1807 0 -1495 1 -1570 19 -1638 29 -113 73
-188 159 -274 56 -56 96 -86 151 -113 146 -71 0 -67 2085 -64 1034 2 1891 6
1905 9 239 59 404 220 467 455 13 47 15 2559 3 2631 -22 128 -90 257 -181 339
-85 78 -214 141 -324 157 -16 2 -886 5 -1932 5 l-1903 1 0 75 c0 71 1 75 23
76 12 1 33 2 47 4 31 3 186 15 260 21 30 2 80 6 110 9 30 2 89 7 130 10 41 3
95 8 120 10 25 2 83 7 130 10 47 3 101 8 120 10 19 2 76 7 125 10 50 4 106 8
125 10 19 2 76 6 125 10 50 3 106 8 125 10 19 2 78 6 130 9 52 4 111 9 130 11
19 2 67 7 105 10 223 17 281 21 383 30 31 2 89 7 127 10 39 3 93 7 120 10 55
5 166 14 261 20 34 3 85 7 115 9 30 3 90 8 134 11 44 4 98 8 120 10 22 2 84 7
138 11 l97 6 0 -131 0 -131 225 0 226 0 -1 265 c-2 199 -6 279 -17 322 -60
230 -259 383 -498 383 -40 0 -74 -2 -76 -4z m277 -2339 c100 -37 186 -101 236
-177 158 -239 59 -559 -206 -669 -82 -33 -221 -38 -303 -10 -136 46 -242 151
-290 284 -12 36 -17 79 -17 150 0 94 2 105 36 177 61 129 166 217 301 252 64
17 188 13 243 -7z"/>
</g>
</svg>
